<svg xmlns="http://www.w3.org/2000/svg" xml:space="preserve" width="249.872" height="395.996"><path fill="none" d="M114.127 3.712c-15.43.181-31.056 1.348-45.83 6.09-9.17 2.955-18.089 7.428-24.908 14.36-4.914 4.926-8.306 11.222-10.206 17.886-2.936 10.086-2.913 20.705-2.69 31.117.284 14.02.555 28.046.223 42.068-.684 36.936.694 73.87 2.565 110.753.332 6.642.685 13.283 1.048 19.923-6.747 3.16-13.286 6.844-19.215 11.372-4.53 3.496-8.474 7.955-10.567 13.341-2.832 7.09-3.063 14.861-2.997 22.397.182 14.426 2.326 28.837 6.417 42.674 3.824 12.839 9.73 25.251 18.584 35.403 6.296 7.249 14.056 13.32 22.89 17.159l5.853 2.247c11.76 3.895 24.21 4.818 36.49 5.633 10.608.681 21.235 1.005 31.862 1.102 23.272.496 46.614-1.006 69.564-4.94 4.623-.797 9.285-2.195 13.024-5.136 4.4-3.378 7.773-7.863 10.996-12.326 4.703-6.763 8.858-13.893 12.793-21.124 8.073-15.01 14.523-31.116 17.027-48.053.852-5.967 1.423-11.972 1.854-17.982.41-6.687.068-13.661-2.83-19.815-3.085-6.637-8.289-11.994-13.751-16.739a81.183 81.183 0 0 0-9.78-7.19c.458-.823-.432-.789-.808-1.111a3234.995 3234.995 0 0 1 4.05-106.986c1.392-25.998 3.352-52.221.093-78.177-1.156-9.048-2.715-18.27-7.01-26.428-3.752-7.163-9.867-13.343-17.568-16.116-4.43-1.45-8.973-2.526-13.5-3.619-19.01-4.414-38.468-6.727-57.951-7.545a314.85 314.85 0 0 0-15.722-.238Z" style="fill:#000;fill-opacity:0;stroke:#000;stroke-width:2.36543;stroke-dasharray:none;stroke-opacity:1" transform="translate(-.358 -2.515)"/></svg>