<svg xmlns="http://www.w3.org/2000/svg" xml:space="preserve" width="250" height="400"><path fill="none" d="M114.071 2.723c-15.507.182-31.212 1.355-46.06 6.12-9.217 2.97-18.18 7.466-25.034 14.433-4.939 4.951-8.348 11.278-10.256 17.976-2.952 10.137-2.929 20.81-2.704 31.273.285 14.09.558 28.187.224 42.28-.687 37.122.697 74.24 2.578 111.31.334 6.675.688 13.349 1.053 20.022-6.78 3.175-13.353 6.878-19.311 11.43-4.553 3.513-8.518 7.994-10.621 13.408C1.094 278.1.862 285.91.928 293.485c.183 14.498 2.338 28.98 6.45 42.887 3.842 12.904 9.778 25.378 18.676 35.58 6.328 7.287 14.127 13.388 23.005 17.246l5.883 2.258c11.819 3.916 24.332 4.843 36.674 5.662 10.66.685 21.341 1.01 32.022 1.107 23.389.499 46.848-1.01 69.913-4.965 4.646-.8 9.332-2.206 13.09-5.16 4.421-3.396 7.812-7.904 11.051-12.389 4.727-6.797 8.902-13.962 12.857-21.23 8.114-15.086 14.596-31.272 17.113-48.295.856-5.996 1.43-12.032 1.863-18.072.411-6.72.069-13.73-2.845-19.915-3.1-6.67-8.33-12.054-13.82-16.822a81.59 81.59 0 0 0-9.828-7.226c.46-.828-.434-.793-.812-1.117a3251.233 3251.233 0 0 1 4.07-107.524c1.4-26.129 3.369-52.483.093-78.57-1.162-9.093-2.728-18.362-7.045-26.56-3.77-7.2-9.916-13.41-17.656-16.198-4.451-1.457-9.018-2.539-13.569-3.636-19.103-4.437-38.66-6.761-58.241-7.584a316.431 316.431 0 0 0-15.801-.239Z" style="fill:#000;fill-opacity:0;stroke:#000;stroke-width:2.37732;stroke-dasharray:none;stroke-opacity:1"/></svg>