<svg xmlns="http://www.w3.org/2000/svg" xml:space="preserve" width="250" height="400"><path fill="none" d="M114.295 6.68c-15.196.177-30.587 1.327-45.139 5.996-9.032 2.912-17.816 7.317-24.533 14.144-4.84 4.853-8.18 11.053-10.05 17.617-2.893 9.934-2.87 20.393-2.65 30.647.279 13.81.546 27.624.22 41.435-.675 36.38.682 72.756 2.525 109.083.327 6.542.675 13.083 1.032 19.623-6.645 3.111-13.085 6.74-18.925 11.2-4.462 3.443-8.347 7.835-10.408 13.14-2.79 6.984-3.016 14.637-2.952 22.06.18 14.208 2.291 28.402 6.32 42.03 3.767 12.645 9.584 24.87 18.304 34.869 6.202 7.14 13.845 13.12 22.545 16.9l5.765 2.213c11.582 3.837 23.845 4.746 35.94 5.549 10.448.671 20.915.99 31.382 1.085 22.921.489 45.91-.99 68.515-4.866 4.553-.784 9.145-2.161 12.828-5.058 4.333-3.327 7.656-7.744 10.83-12.14 4.632-6.66 8.724-13.683 12.6-20.805 7.952-14.785 14.304-30.647 16.77-47.33.84-5.876 1.402-11.79 1.826-17.71.404-6.586.068-13.455-2.787-19.517-3.038-6.536-8.163-11.812-13.544-16.486a79.96 79.96 0 0 0-9.632-7.08c.451-.812-.425-.778-.796-1.096.753-35.144 2.072-70.26 3.989-105.373 1.371-25.606 3.302-51.434.091-76.999-1.138-8.91-2.673-17.995-6.904-26.029-3.695-7.055-9.718-13.142-17.302-15.873-4.363-1.428-8.838-2.488-13.298-3.564-18.722-4.348-37.887-6.626-57.077-7.432a310.103 310.103 0 0 0-15.485-.234Z" style="fill:#000;fill-opacity:0;stroke:#000;stroke-width:2.32977;stroke-dasharray:none;stroke-opacity:1"/></svg>