<svg xmlns="http://www.w3.org/2000/svg" xml:space="preserve" width="247.137" height="393.992"><path fill="none" d="M123.96 180.696a585.731 585.731 0 0 0 79.199-19.49 585.698 585.698 0 0 0 70.362-27.749M130.98 352.472a310.786 310.786 0 0 0 45.917 5.946c13.313.722 26.67.586 39.97-.33a341.427 341.427 0 0 0 44.101-5.946m7.034-110.819a882.13 882.13 0 0 0 5.519-103.902c-.166-27.74-1.643-55.497-5.286-82.998a529.916 529.916 0 0 0-7.184-41.498M124.304 241.487l-.207-69.572c-.025-8.397.069-16.794 0-25.19-.221-27.087-2.948-54.315.573-81.173a176.088 176.088 0 0 1 17.282-56.183m149.034 234.507a44.72 44.72 0 0 0-12.41-2.386 44.702 44.702 0 0 0-10.732.783 436.648 436.648 0 0 0-2.208 15.808c-2.44 20.147-3.472 40.444-3.83 60.736-.172 9.782-.188 19.57-.618 29.345-.344 7.816-.946 15.733.635 23.396a41.9 41.9 0 0 0 7.85 17.086M106 246.125c-.346-6.291-.68-12.583-1-18.875-1.504-29.487-2.735-58.996-2.852-88.521-.038-9.41.038-18.82.227-28.229.275-13.716-.068-27.432-.325-41.149-.128-6.858-.072-13.749.944-20.533 1.016-6.784 3.047-13.51 6.793-19.257 6.46-9.915 17.454-16.04 28.713-19.686 13.187-4.27 27.144-5.637 41-6 12.426-.325 24.87.137 37.25 1.25 17.254 1.551 34.42 4.373 51.11 9.016 1.092.304 2.183.615 3.25 1 6.653 2.396 12.085 7.57 15.665 13.667 4.162 7.087 5.96 15.3 7.156 23.432 3.848 26.165 2.064 52.786.6 79.192a3245.014 3245.014 0 0 0-4.275 112.391 79.757 79.757 0 0 1 15.5 11.926c4.256 4.2 8.104 8.997 10.119 14.626 2.568 7.172 1.964 15.041 1.25 22.625-.429 4.555-.886 9.11-1.625 13.625-3.337 20.382-12.34 39.436-23 57.125-3.266 5.42-6.708 10.756-10.75 15.625-2.639 3.178-5.595 6.2-9.25 8.125-3.54 1.865-7.55 2.605-11.5 3.25-15.995 2.614-32.174 4.068-48.375 4.5-6.873.183-13.752.183-20.625 0m2.1.023a540.09 540.09 0 0 1-37.122-1.415c-13.797-1.001-27.914-2.636-40.23-8.935-11.046-5.65-20.06-14.84-26.585-25.393-6.525-10.553-10.665-22.443-13.366-34.553-2.634-11.81-3.941-23.92-3.797-36.018.092-7.705.877-15.736 4.943-22.282 3.044-4.9 7.699-8.577 12.522-11.74 4.959-3.251 10.197-6.07 15.601-8.51 4.33-1.955 8.825-3.683 13.54-4.268a29.11 29.11 0 0 1 4.709-.2l6.937 112.767c.388 6.31-.019 12.724-2.081 18.7a50.458 50.458 0 0 1-6.502 12.67l-1.153 2.027" style="fill:#000;fill-opacity:0;stroke:#000;stroke-width:2.37732;stroke-dasharray:none;stroke-opacity:1" transform="translate(-71.8 -2.584)"/><path d="M96.663 5.724c15.929 27.607 12.738 20.057 18.818 29.507 6.08 9.45 4.389 6.996 4.389 6.996l.516 51.634 9.063.064-.495-49.551.826-3.634 27.47-33.23-9.188-1.042-19.604 26.179-6.937-.165-14.844-27.418Z" style="fill:#000;fill-opacity:.981025;stroke:#000;stroke-width:2.37732;stroke-dasharray:none;stroke-opacity:1" transform="translate(-1.725 -3.519)"/></svg>